<?xml version="1.0" encoding="UTF-8" standalone="no"?>
<!DOCTYPE svg PUBLIC "-//W3C//DTD SVG 1.1//EN" "http://www.w3.org/Graphics/SVG/1.1/DTD/svg11.dtd">
<svg xmlns="http://www.w3.org/2000/svg" xmlns:xlink="http://www.w3.org/1999/xlink" version="1.1" width="242.647pt" height="44.7434pt" viewBox="0 0 242.647 44.7434">
<g enable-background="new">
<g id="Layer-1" data-name="Layer 1">
<clipPath id="cp0">
<path transform="matrix(1,0,0,-1,0,44.7434)" d="M 0 44.743 L 242.647 44.743 L 242.647 0 L 0 0 Z "/>
</clipPath>
<g clip-path="url(#cp0)">
<path transform="matrix(1,0,0,-1,0,44.7434)" d="M 33.081 11.659 L 11.024002 11.659 L 11.024002 33.721 L 33.081 33.721 Z M 33.081 44.743 L 11.024 44.743 C 4.936 44.743 0 39.807 0 33.721 L 0 11.659 C 0 5.575 4.936 .639 11.024 .639 L 33.081 .639 C 39.168 .639 44.103 5.575 44.103 11.659 L 44.103 33.721 C 44.103 39.807 39.168 44.743 33.081 44.743 " fill="#00509e"/>
<path transform="matrix(1,0,0,-1,21.9785,12.930101)" d="M 0 0 C -4.998 0 -9.046 -4.054 -9.046 -9.048 C -9.046 -14.046 -4.998 -18.094 0 -18.094 C 4.996 -18.094 9.046 -14.046 9.046 -9.048 C 9.046 -4.054 4.996 0 0 0 " fill="#00509e"/>
<path transform="matrix(1,0,0,-1,74.956,.04629898)" d="M 0 0 L 21.479 -31.225 L 21.479 -7.201 L 21.417 -1.487 L 14.962 -1.487 L 14.962 0 L 28.805 0 L 28.805 -1.487 L 23.465 -1.487 L 23.404 -7.201 L 23.404 -44.386 L 22.41 -44.697 L -6.394 -2.792 L -6.394 -36.441 L -6.333 -42.337 L .308 -42.337 L .308 -43.827 L -14.029 -43.827 L -14.029 -42.337 L -8.32 -42.337 L -8.258 -36.441 L -8.258 -7.201 L -8.32 -1.487 L -14.029 -1.487 L -14.029 0 Z " fill="#231f20"/>
<path transform="matrix(1,0,0,-1,146.5961,.04629898)" d="M 0 0 L 0 -14.028 L -1.862 -14.028 C -2.05 -11.856 -2.299 -9.126 -4.223 -5.896 C -6.457 -2.11 -9.5 -1.922 -12.479 -1.799 L -15.956 -1.799 L -16.016 -7.386 L -16.016 -36.003 L -15.956 -42.337 L -9.25 -42.337 L -9.25 -43.827 L -29.611 -43.827 L -29.611 -42.337 L -22.908 -42.337 L -22.845 -36.003 L -22.845 -7.386 L -22.908 -1.799 L -25.764 -1.799 C -29.365 -1.86 -32.095 -1.86 -34.703 -6.019 C -36.751 -9.311 -36.937 -11.918 -37.062 -14.028 L -38.861 -14.028 L -38.861 0 Z " fill="#231f20"/>
<path transform="matrix(1,0,0,-1,164.226,.04629898)" d="M 0 0 L 21.479 -31.225 L 21.479 -7.201 L 21.418 -1.487 L 14.961 -1.487 L 14.961 0 L 28.805 0 L 28.805 -1.487 L 23.466 -1.487 L 23.402 -7.201 L 23.402 -44.386 L 22.409 -44.697 L -6.395 -2.792 L -6.395 -36.441 L -6.332 -42.337 L .312 -42.337 L .312 -43.827 L -14.031 -43.827 L -14.031 -42.337 L -8.317 -42.337 L -8.259 -36.441 L -8.259 -7.201 L -8.317 -1.487 L -14.031 -1.487 L -14.031 0 Z " fill="#231f20"/>
<path transform="matrix(1,0,0,-1,217.1342,.04629898)" d="M 0 0 L 0 -1.487 L -6.148 -1.487 L -6.207 -6.766 L -6.207 -30.48 C -6.148 -36.627 -6.021 -42.46 5.526 -42.46 C 17.195 -42.46 17.94 -37.37 18.125 -31.845 L 18.125 -6.766 L 18.065 -1.487 L 11.798 -1.487 L 11.798 0 L 25.513 0 L 25.513 -1.487 L 20.115 -1.487 L 20.054 -6.766 L 20.054 -29.364 C 19.989 -37.496 19.927 -44.447 3.849 -44.447 C 1.555 -44.447 -3.912 -44.2 -7.385 -42.772 C -12.911 -40.412 -13.034 -35.571 -13.098 -29.611 L -13.098 -6.766 L -13.161 -1.487 L -18.5 -1.487 L -18.5 0 Z " fill="#231f20"/>
</g>
</g>
</g>
</svg>
