<?xml version="1.0" encoding="UTF-8"?>
<svg version="1.1" viewBox="0 0 58.803 78.759" xmlSpace="preserve" xmlns="http://www.w3.org/2000/svg" xmlnsCc="http://creativecommons.org/ns#" xmlnsDc="http://purl.org/dc/elements/1.1/" xmlnsRdf="http://www.w3.org/1999/02/22-rdf-syntax-ns#"><metadata><rdfRDF><ccWork rdfAbout=""><dcFormat>image/svg+xml</dcFormat><dcType rdfResource="http://purl.org/dc/dcmitype/StillImage"/></ccWork></rdfRDF></metadata><defs><clipPath id="a"><path d="M 0,59.069 H 44.102 V 0 H 0 Z"/></clipPath></defs><g transform="matrix(1.3333 0 0 -1.3333 0 78.759)"><g clip-path="url(#a)"><path d="m11.023 48.047h22.057v-22.059h-22.057zm22.057 11.022h-22.057c-6.089 0-11.023-4.934-11.023-11.022v-22.058c0-6.087 4.934-11.022 11.023-11.022h22.057c6.087 0 11.022 4.935 11.022 11.022v22.058c0 6.088-4.935 11.022-11.022 11.022" fill="#214ca1"/><g transform="translate(21.978 46.139)"><path d="m0 0c-4.997 0-9.046-4.052-9.046-9.048s4.049-9.046 9.046-9.046 9.045 4.05 9.045 9.046-4.048 9.048-9.045 9.048" fill="#214ca1"/></g><g transform="translate(4.8004 10.024)"><path d="m0 0 4.818-7.003v5.388l-0.015 1.281h-1.448v0.334h3.104v-0.334h-1.197l-0.015-1.281v-8.339l-0.221-0.07-6.46 9.397v-7.546l0.014-1.322h1.489v-0.334h-3.215v0.334h1.282l0.012 1.322v6.558l-0.012 1.281h-1.282v0.334z" fill="#210e08"/></g><g transform="translate(20.867 10.024)"><path d="m0 0v-3.146h-0.418c-0.042 0.487-0.097 1.099-0.529 1.823-0.501 0.849-1.183 0.892-1.852 0.92h-0.78l-0.014-1.253v-6.419l0.014-1.42h1.504v-0.334h-4.566v0.334h1.503l0.014 1.42v6.419l-0.014 1.253h-0.64c-0.807-0.015-1.42-0.015-2.005-0.948-0.459-0.738-0.501-1.322-0.529-1.795h-0.402v3.146h8.714" fill="#210e08"/></g><g transform="translate(24.82 10.024)"><path d="m0 0 4.817-7.003v5.388l-0.014 1.281h-1.449v0.334h3.106v-0.334h-1.198l-0.014-1.281v-8.339l-0.223-0.07-6.46 9.397v-7.546l0.016-1.322h1.488v-0.334h-3.215v0.334h1.281l0.013 1.322v6.558l-0.013 1.281h-1.281v0.334z" fill="#210e08"/></g><g transform="translate(36.685 10.024)"><path d="m0 0v-0.334h-1.379l-0.014-1.184v-5.317c0.014-1.379 0.042-2.687 2.632-2.687 2.617 0 2.784 1.141 2.826 2.38v5.624l-0.013 1.184h-1.406v0.334h3.076v-0.334h-1.211l-0.014-1.184v-5.068c-0.015-1.823-0.028-3.382-3.634-3.382-0.515 0-1.74 0.056-2.52 0.375-1.239 0.53-1.267 1.615-1.281 2.952v5.123l-0.013 1.184h-1.197v0.334h4.148" fill="#210e08"/></g></g></g></svg>
